<svg xmlns="http://www.w3.org/2000/svg" width="512" height="512" viewBox="0 0 512 512" version="1.1">
	<path d="M 290.500 9.567 C 276.023 12.418, 260.982 22.378, 250.416 36.109 C 241.389 47.841, 232.578 67.688, 227.937 86.748 L 225.685 95.997 216.093 86.719 C 210.817 81.616, 203.269 75.303, 199.320 72.690 C 177.846 58.482, 150.622 50.961, 125.500 52.296 C 114.799 52.865, 100.961 54.904, 101.060 55.897 C 101.093 56.228, 107.730 59.760, 115.810 63.743 C 123.889 67.727, 134.747 74.027, 139.938 77.743 C 150.993 85.657, 165.700 99.797, 172.427 108.978 C 179.874 119.141, 179.847 118.837, 173.200 117.747 C 165.589 116.499, 144.300 117.443, 135.085 119.437 C 118.825 122.956, 101.901 129.976, 87.043 139.365 L 80.500 143.500 98.131 144.664 C 118.706 146.021, 127.763 147.236, 141.510 150.482 C 160.194 154.894, 173.593 160.722, 184.921 169.364 C 189.987 173.229, 198 182.183, 198 183.979 C 198 184.418, 196.479 185.063, 194.620 185.412 C 185.570 187.109, 163.986 206.578, 151.230 224.551 C 136.449 245.376, 124.473 275.554, 119.305 305 C 116.886 318.781, 116.579 323.051, 116.542 343.500 C 116.494 369.792, 118.228 386.114, 123.129 405.500 C 128.789 427.890, 138.890 450.835, 149.164 464.639 C 160.074 479.298, 176.833 494.330, 188.877 500.261 L 195.454 503.500 252.477 503.821 C 314.444 504.169, 316.528 504.026, 325.969 498.777 C 337.285 492.485, 352.766 478.140, 362.962 464.500 C 369.269 456.062, 379.834 434.876, 383.907 422.500 C 392.635 395.975, 395.530 376.132, 395.429 343.500 C 395.367 323.239, 395.038 318.654, 392.668 305 C 387.572 275.654, 375.588 245.427, 360.770 224.551 C 348.014 206.578, 326.430 187.109, 317.380 185.412 C 315.521 185.063, 314 184.418, 314 183.979 C 314 181.990, 322.698 172.482, 328.267 168.382 C 347.662 154.105, 376.136 146.473, 418.500 144.198 L 431.500 143.500 425.500 139.686 C 410.934 130.426, 392.635 122.927, 375.659 119.263 C 363.815 116.706, 338.487 116.987, 327.504 119.796 C 323.107 120.921, 319.387 121.720, 319.238 121.572 C 319.089 121.423, 321.732 117.415, 325.110 112.666 C 340.355 91.235, 363.891 72.397, 390.266 60.518 C 395.070 58.355, 399 56.292, 399 55.934 C 399 54.341, 382.415 52.504, 368.500 52.555 C 334.976 52.677, 307.657 63.733, 283.750 86.852 L 276 94.347 276.006 87.923 C 276.024 68.432, 283.869 39.906, 295.374 17.500 C 297.633 13.100, 299.636 9.162, 299.824 8.750 C 300.266 7.783, 298.991 7.894, 290.500 9.567" stroke="none" fill="black" fill-rule="evenodd"/>
</svg>